<svg width="64" height="64" viewBox="0 0 64 64" fill="none" xmlns="http://www.w3.org/2000/svg">
  <circle cx="32" cy="32" r="31.5" fill="#DDE9FD" stroke="#E9EBF0" />
  <defs>
    <clipPath id="teacherAvatarClip">
      <circle cx="32" cy="32" r="31.5" />
    </clipPath>
  </defs>
  <g clip-path="url(#teacherAvatarClip)">
    <g transform="scale(3.2)">
      <path d="M3.57141 19.0474C3.57141 15.6285 6.34298 12.8569 9.76189 12.8569H10.2381C13.657 12.8569 16.4286 15.6285 16.4286 19.0474C16.4286 20.7569 15.0428 22.1426 13.3333 22.1426H6.66665C4.9572 22.1426 3.57141 20.7569 3.57141 19.0474Z" fill="#233E8E" />
      <path d="M11.7754 13.0498C14.4506 13.7335 16.4287 16.1597 16.4287 19.0479C16.4285 20.7571 15.0423 22.1426 13.333 22.1426H6.66699C4.95769 22.1426 3.57153 20.7571 3.57129 19.0479C3.57129 16.16 5.54892 13.7338 8.22363 13.0498L10 15.7139L11.7754 13.0498ZM8.92871 18.9287L10 19.8213L11.0713 18.9287L10 15.7139L8.92871 18.9287Z" fill="#4C6ED5" />
    </g>
    <g transform="translate(13.1456 11.904) scale(1.6)">
      <path d="M20.7143 11.4898C20.7143 16.0264 16.5126 20.4184 11.9608 20.4184C7.409 20.4184 2.85718 16.0264 2.85718 11.4898C2.85718 6.9532 6.93302 3.27554 11.9608 3.27554C16.9886 3.27554 20.7143 6.9532 20.7143 11.4898Z" fill="#FFDABF" />
      <path d="M20.3571 11.8924C14.3854 10.6679 9.02822 5.56503 7.85707 3.32033C9.64279 1.17635 11.3932 0.241376 13.2142 0.0614338C21.4285 -0.750209 23.3397 6.64982 22.4999 12.2494C20.9554 12.3009 21.6697 12.1616 20.3571 11.8924Z" fill="#2B2B2B" />
      <path d="M2.85741 12.2462C6.16026 10.2189 11.7857 6.76265 11.7857 5.06097C14.2046 2.05617 12.8256 0.76543 10.2909 0.299922C4.62084 -0.741398 0.746679 5.29218 1.48049 11.0101C2.87806 10.4821 1.89665 12.8359 2.85741 12.2462Z" fill="#2B2B2B" />
      <path d="M0.714216 12.6049C0.714216 13.7884 1.87085 14.7478 2.85707 14.7478C3.8433 14.7478 4.28564 13.7884 4.28564 12.6049C4.28564 11.4214 3.48615 10.4621 2.49993 10.4621C1.51371 10.4621 0.714216 11.4214 0.714216 12.6049Z" fill="#FFDABF" />
      <path d="M22.8571 12.6049C22.8571 13.7884 21.7004 14.7478 20.7142 14.7478C19.728 14.7478 19.2856 13.7884 19.2856 12.6049C19.2856 11.4214 20.0851 10.4621 21.0714 10.4621C22.0576 10.4621 22.8571 11.4214 22.8571 12.6049Z" fill="#FFDABF" />
      <path d="M15.357 12.2474C15.357 12.8391 15.0372 13.3188 14.6428 13.3188C14.2483 13.3188 13.9285 12.8391 13.9285 12.2474C13.9285 11.6556 14.2483 11.1759 14.6428 11.1759C15.0372 11.1759 15.357 11.6556 15.357 12.2474Z" fill="#2B2E3A" />
      <path d="M9.64268 12.2474C9.64268 12.8391 9.32289 13.3188 8.9284 13.3188C8.53391 13.3188 8.21411 12.8391 8.21411 12.2474C8.21411 11.6556 8.53391 11.1759 8.9284 11.1759C9.32289 11.1759 9.64268 11.6556 9.64268 12.2474Z" fill="#2B2E3A" />
      <path d="M11.7859 16.7209C12.3073 16.7209 12.7459 16.3688 12.878 15.8895C12.9195 15.7388 12.8088 15.588 12.6516 15.588H10.9195C10.763 15.588 10.6516 15.738 10.693 15.8895C10.8252 16.3688 11.2638 16.7209 11.7852 16.7209H11.7859Z" fill="#2B2E3A" />
      <path d="M10.7141 11.8477C11.4229 11.3751 12.1482 11.3752 12.857 11.8477L12.6589 12.1449C12.0701 11.7524 11.501 11.7523 10.9122 12.1448L10.7141 11.8477Z" fill="#4A4D5C" />
      <circle cx="8.57129" cy="12.2042" r="2.25" stroke="#4A4D5C" stroke-width="0.5" />
      <circle cx="15" cy="12.2042" r="2.25" stroke="#4A4D5C" stroke-width="0.5" />
    </g>
  </g>
</svg>
