<svg preserveAspectRatio="none" width="100%" height="100%" overflow="visible" style="display: block;" viewBox="0 0 81 18.2583" fill="none" xmlns="http://www.w3.org/2000/svg">
<g id="ssam B">
<path id="Vector" d="M68.7073 17.972C67.5241 17.972 66.8266 17.2497 66.8266 16.0042V1.95538C66.8266 0.722369 67.5241 0 68.7073 0H74.6481C78.0233 0 80.1406 1.73119 80.1406 4.48367C80.1406 6.4515 78.671 8.09552 76.7654 8.38197V8.48161C79.2065 8.66843 81 10.4494 81 12.8283C81 15.9918 78.6212 17.972 74.7851 17.972H68.7073ZM70.5879 7.47278H73.2906C75.2958 7.47278 76.4416 6.5885 76.4416 5.06904C76.4416 3.6243 75.4328 2.80229 73.6767 2.80229H70.5879V7.47278ZM70.5879 15.1697H73.8261C75.9932 15.1697 77.164 14.2481 77.164 12.5294C77.164 10.848 75.9559 9.95126 73.7389 9.95126H70.5879V15.1697Z" fill="var(--fill-0, #3863F6)"/>
<path id="Vector_2" d="M41.7674 18.2338C40.6839 18.2338 39.949 17.5737 39.949 16.3407V6.20265C39.949 4.98209 40.6714 4.3469 41.7051 4.3469C42.7389 4.3469 43.4612 4.98209 43.4612 6.20265V7.03711H43.536C44.0964 5.43046 45.5287 4.37181 47.3471 4.37181C49.2776 4.37181 50.6227 5.36819 51.071 7.11183H51.1458C51.7436 5.43046 53.3378 4.37181 55.2932 4.37181C57.9086 4.37181 59.6647 6.16528 59.6647 8.85548V16.3407C59.6647 17.5737 58.9175 18.2338 57.8339 18.2338C56.7628 18.2338 56.028 17.5737 56.028 16.3407V9.76467C56.028 8.2203 55.2558 7.37338 53.8484 7.37338C52.4659 7.37338 51.5568 8.38221 51.5568 9.86431V16.3407C51.5568 17.5737 50.8842 18.2338 49.8007 18.2338C48.7296 18.2338 48.057 17.5737 48.057 16.3407V9.65258C48.057 8.2203 47.2475 7.37338 45.9024 7.37338C44.5199 7.37338 43.5858 8.41957 43.5858 9.91413V16.3407C43.5858 17.5737 42.8385 18.2338 41.7674 18.2338Z" fill="var(--fill-0, #3863F6)"/>
<path id="Vector_3" d="M30.1781 18.1833C27.6373 18.1833 25.7069 16.5393 25.7069 14.1356C25.7069 11.7069 27.5751 10.2995 30.9129 10.1003L34.2757 9.90099V9.01671C34.2757 7.77125 33.4038 7.04888 32.0338 7.04888C30.9254 7.04888 30.2528 7.41006 29.4433 8.45625C29.0447 8.90462 28.5839 9.1288 27.9985 9.1288C27.1142 9.1288 26.4791 8.55589 26.4791 7.73388C26.4791 7.44743 26.5413 7.18588 26.6659 6.91188C27.2886 5.31768 29.4308 4.33377 32.1957 4.33377C35.6208 4.33377 37.8501 6.10233 37.8501 8.79253V16.4023C37.8501 17.6104 37.1153 18.2331 36.0816 18.2331C35.0977 18.2331 34.4127 17.6851 34.3379 16.614V15.929H34.2632C33.5159 17.3489 31.847 18.1833 30.1781 18.1833ZM31.3737 15.5554C32.9679 15.5554 34.2757 14.5217 34.2757 13.0769V12.1055L31.4609 12.2798C30.1034 12.3795 29.3312 12.9897 29.3312 13.9363C29.3312 14.9327 30.1532 15.5554 31.3737 15.5554Z" fill="var(--fill-0, #3863F6)"/>
<path id="Vector_4" d="M18.7757 18.2581C15.7119 18.2581 13.6693 17.162 13.0341 15.5928C12.9469 15.3561 12.8971 15.1195 12.8971 14.9202C12.8971 14.0857 13.5199 13.5253 14.3668 13.5253C14.9521 13.5253 15.4503 13.7868 15.9485 14.3473C16.6584 15.2814 17.4804 15.7049 18.8629 15.7049C20.1831 15.7049 21.0425 15.1568 21.0425 14.2726C21.0425 13.5502 20.5816 13.1641 19.2739 12.8776L17.0321 12.4044C14.4166 11.8439 13.0964 10.5113 13.0964 8.53098C13.0964 5.97778 15.3009 4.33377 18.7633 4.33377C21.5282 4.33377 23.5583 5.59169 23.9942 7.0987C24.044 7.28552 24.0814 7.45988 24.0814 7.63425C24.0814 8.36907 23.6206 8.87971 22.6865 8.87971C22.2132 8.87971 21.6901 8.70534 21.3663 8.31925C20.7311 7.5097 20.0087 6.88697 18.701 6.88697C17.468 6.88697 16.6086 7.47234 16.6086 8.33171C16.6086 9.02917 17.1317 9.48999 18.4644 9.77644L20.6688 10.2497C23.5085 10.8475 24.6792 11.8937 24.6792 13.8865C24.6792 16.5393 22.3004 18.2581 18.7757 18.2581Z" fill="var(--fill-0, #3863F6)"/>
<path id="Vector_5" d="M5.87859 18.2581C2.81475 18.2581 0.772188 17.162 0.137001 15.5928C0.0498186 15.3561 0 15.1195 0 14.9202C0 14.0857 0.622732 13.5253 1.46965 13.5253C2.05502 13.5253 2.5532 13.7868 3.05139 14.3473C3.7613 15.2814 4.58331 15.7049 5.96577 15.7049C7.28596 15.7049 8.14533 15.1568 8.14533 14.2726C8.14533 13.5502 7.68451 13.1641 6.37678 12.8776L4.13494 12.4044C1.51947 11.8439 0.199274 10.5113 0.199274 8.53098C0.199274 5.97778 2.40375 4.33377 5.86614 4.33377C8.63107 4.33377 10.6612 5.59169 11.0971 7.0987C11.1469 7.28552 11.1843 7.45988 11.1843 7.63425C11.1843 8.36907 10.7234 8.87971 9.78935 8.87971C9.31607 8.87971 8.79298 8.70534 8.46915 8.31925C7.83397 7.5097 7.1116 6.88697 5.80386 6.88697C4.57085 6.88697 3.71148 7.47234 3.71148 8.33171C3.71148 9.02917 4.23458 9.48999 5.56722 9.77644L7.7717 10.2497C10.6114 10.8475 11.7821 11.8937 11.7821 13.8865C11.7821 16.5393 9.40325 18.2581 5.87859 18.2581Z" fill="var(--fill-0, #3863F6)"/>
</g>
</svg>
