<svg xmlns="http://www.w3.org/2000/svg" width="121" height="28" viewBox="0 0 121 28" fill="none">
  <path d="M103.707 22.972C102.524 22.972 101.826 22.2497 101.826 21.0042V6.95538C101.826 5.72237 102.524 5 103.707 5H109.648C113.023 5 115.14 6.73119 115.14 9.48367C115.14 11.4515 113.671 13.0955 111.765 13.382V13.4816C114.206 13.6684 116 15.4494 116 17.8283C116 20.9918 113.621 22.972 109.785 22.972H103.707ZM105.587 12.4728H108.29C110.295 12.4728 111.441 11.5885 111.441 10.069C111.441 8.6243 110.432 7.80229 108.676 7.80229H105.587V12.4728ZM105.587 20.1697H108.826C110.993 20.1697 112.164 19.2481 112.164 17.5294C112.164 15.848 110.955 14.9513 108.738 14.9513H105.587V20.1697Z" fill="#3863F6"/>
  <path d="M76.7676 23.2307C75.684 23.2307 74.9492 22.5706 74.9492 21.3376V11.1995C74.9492 9.97894 75.6716 9.34375 76.7053 9.34375C77.7391 9.34375 78.4614 9.97894 78.4614 11.1995V12.034H78.5362C79.0966 10.4273 80.5289 9.36866 82.3473 9.36866C84.2777 9.36866 85.6228 10.365 86.0712 12.1087H86.1459C86.7438 10.4273 88.338 9.36866 90.2933 9.36866C92.9088 9.36866 94.6649 11.1621 94.6649 13.8523V21.3376C94.6649 22.5706 93.9176 23.2307 92.8341 23.2307C91.763 23.2307 91.0282 22.5706 91.0282 21.3376V14.7615C91.0282 13.2171 90.256 12.3702 88.8486 12.3702C87.4661 12.3702 86.5569 13.3791 86.5569 14.8612V21.3376C86.5569 22.5706 85.8844 23.2307 84.8008 23.2307C83.7297 23.2307 83.0572 22.5706 83.0572 21.3376V14.6494C83.0572 13.2171 82.2476 12.3702 80.9025 12.3702C79.5201 12.3702 78.586 13.4164 78.586 14.911V21.3376C78.586 22.5706 77.8387 23.2307 76.7676 23.2307Z" fill="#3863F6"/>
  <path d="M65.1782 23.1855C62.6375 23.1855 60.707 21.5415 60.707 19.1377C60.707 16.7091 62.5752 15.3017 65.9131 15.1024L69.2758 14.9032V14.0189C69.2758 12.7734 68.404 12.051 67.034 12.051C65.9255 12.051 65.253 12.4122 64.4434 13.4584C64.0449 13.9068 63.5841 14.131 62.9987 14.131C62.1144 14.131 61.4792 13.5581 61.4792 12.7361C61.4792 12.4496 61.5415 12.188 61.666 11.914C62.2888 10.3199 64.431 9.33594 67.1959 9.33594C70.6209 9.33594 72.8503 11.1045 72.8503 13.7947V21.4045C72.8503 22.6126 72.1155 23.2353 71.0817 23.2353C70.0978 23.2353 69.4128 22.6873 69.3381 21.6162V20.9312H69.2634C68.5161 22.351 66.8472 23.1855 65.1782 23.1855ZM66.3739 20.5576C67.9681 20.5576 69.2758 19.5238 69.2758 18.0791V17.1076L66.4611 17.282C65.1035 17.3816 64.3313 17.9919 64.3313 18.9385C64.3313 19.9348 65.1533 20.5576 66.3739 20.5576Z" fill="#3863F6"/>
  <path d="M53.7761 23.2602C50.7122 23.2602 48.6696 22.1642 48.0345 20.5949C47.9473 20.3583 47.8975 20.1217 47.8975 19.9224C47.8975 19.0879 48.5202 18.5275 49.3671 18.5275C49.9525 18.5275 50.4507 18.789 50.9488 19.3495C51.6588 20.2836 52.4808 20.707 53.8632 20.707C55.1834 20.707 56.0428 20.159 56.0428 19.2747C56.0428 18.5524 55.582 18.1663 54.2742 17.8798L52.0324 17.4065C49.4169 16.8461 48.0967 15.5134 48.0967 13.5332C48.0967 10.9799 50.3012 9.33594 53.7636 9.33594C56.5285 9.33594 58.5586 10.5939 58.9945 12.1009C59.0444 12.2877 59.0817 12.4621 59.0817 12.6364C59.0817 13.3712 58.6209 13.8819 57.6868 13.8819C57.2135 13.8819 56.6904 13.7075 56.3666 13.3214C55.7314 12.5119 55.0091 11.8891 53.7013 11.8891C52.4683 11.8891 51.6089 12.4745 51.6089 13.3339C51.6089 14.0313 52.132 14.4922 53.4647 14.7786L55.6692 15.2519C58.5088 15.8497 59.6795 16.8959 59.6795 18.8886C59.6795 21.5415 57.3007 23.2602 53.7761 23.2602Z" fill="#3863F6"/>
  <path d="M40.8786 23.2602C37.8147 23.2602 35.7722 22.1642 35.137 20.5949C35.0498 20.3583 35 20.1217 35 19.9224C35 19.0879 35.6227 18.5275 36.4696 18.5275C37.055 18.5275 37.5532 18.789 38.0514 19.3495C38.7613 20.2836 39.5833 20.707 40.9658 20.707C42.286 20.707 43.1453 20.159 43.1453 19.2747C43.1453 18.5524 42.6845 18.1663 41.3768 17.8798L39.1349 17.4065C36.5195 16.8461 35.1993 15.5134 35.1993 13.5332C35.1993 10.9799 37.4037 9.33594 40.8661 9.33594C43.6311 9.33594 45.6612 10.5939 46.0971 12.1009C46.1469 12.2877 46.1843 12.4621 46.1843 12.6364C46.1843 13.3712 45.7234 13.8819 44.7893 13.8819C44.3161 13.8819 43.793 13.7075 43.4692 13.3214C42.834 12.5119 42.1116 11.8891 40.8039 11.8891C39.5709 11.8891 38.7115 12.4745 38.7115 13.3339C38.7115 14.0313 39.2346 14.4922 40.5672 14.7786L42.7717 15.2519C45.6114 15.8497 46.7821 16.8959 46.7821 18.8886C46.7821 21.5415 44.4033 23.2602 40.8786 23.2602Z" fill="#3863F6"/>
  <path d="M16.6206 18.0845L15.235 18.8845L13.635 16.1132L15.0206 15.3132L16.6206 18.0845ZM20.9919 19.2557C22.5224 18.3721 23.0468 16.415 22.1632 14.8845L20.5632 12.1132C19.6795 10.5826 17.7224 10.0582 16.1919 10.9419C14.6614 11.8255 14.137 13.7826 15.0206 15.3132L13.635 16.1132L13.517 15.8962C12.3974 13.7084 13.1178 11.02 15.1812 9.6851L15.3919 9.55625C17.616 8.27217 20.4406 8.9703 21.82 11.1025L21.9488 11.3132L23.5488 14.0845C24.8743 16.3803 24.0877 19.3159 21.7919 20.6414L21.575 20.7594C19.3872 21.8789 16.6988 21.1586 15.3638 19.0951L15.235 18.8845L16.6206 18.0845C17.5043 19.615 19.4614 20.1394 20.9919 19.2557Z" fill="#3863F6"/>
  <path d="M7.2 19.3652C5.98497 17.2607 6.70602 14.5697 8.81051 13.3547L12.621 11.1547L14.821 14.9652C16.0361 17.0697 15.315 19.7607 13.2105 20.9757C11.106 22.1907 8.41503 21.4697 7.2 19.3652Z" fill="#3863F6"/>
  <path d="M27.9842 7.3652C26.7692 5.26071 24.0782 4.53966 21.9737 5.75469L18.1632 7.95469L20.3632 11.7652C21.5782 13.8697 24.2692 14.5907 26.3737 13.3757C28.4782 12.1607 29.1992 9.46969 27.9842 7.3652Z" fill="#3863F6"/>
  <path d="M12.7282 12.9435L11.9282 11.5579C10.8237 9.64468 11.4792 7.19832 13.3923 6.09375C15.3055 4.98918 17.7519 5.64468 18.8564 7.55785L19.6564 8.94349L12.7282 12.9435Z" fill="#3863F6"/>
  <path d="M12.6212 11.1569C11.7376 9.62639 12.262 7.6693 13.7925 6.78564C15.323 5.90199 17.2801 6.42639 18.1638 7.95692L18.5638 8.64974L13.0212 11.8497L12.6212 11.1569ZM12.4356 14.0354L20.7494 9.23538L19.5494 7.15692C18.2239 4.86112 15.2883 4.07452 12.9925 5.4C10.6967 6.72548 9.91009 9.66112 11.2356 11.9569L12.4356 14.0354Z" fill="#3863F6"/>
  <path d="M20.1631 11.4234C20.5458 11.2025 21.035 11.3336 21.2559 11.7163C21.4769 12.0989 21.3458 12.5882 20.9631 12.8091L15.4206 16.0091C15.0379 16.23 14.5486 16.0989 14.3277 15.7163C14.1068 15.3336 14.2379 14.8444 14.6206 14.6234L20.1631 11.4234Z" fill="#3863F6"/>
  <path d="M21.7637 14.1891C22.1463 13.9681 22.6356 14.0992 22.8565 14.4819C23.0774 14.8645 22.9463 15.3538 22.5637 15.5747L17.0211 18.7747C16.6385 18.9956 16.1492 18.8645 15.9283 18.4819C15.7074 18.0992 15.8385 17.61 16.2211 17.3891L21.7637 14.1891Z" fill="#3863F6"/>
  <path d="M22.3203 5.55469C22.7029 5.33377 23.1922 5.46487 23.4131 5.84751C23.634 6.23014 23.5029 6.71942 23.1203 6.94033L9.95669 14.5403C9.57405 14.7612 9.08478 14.6301 8.86387 14.2475C8.64295 13.8649 8.77405 13.3756 9.15669 13.1547L22.3203 5.55469Z" fill="#3863F6"/>
  <circle cx="23.3927" cy="23.4138" r="1.6" transform="rotate(-30 23.3927 23.4138)" fill="#3863F6"/>
</svg>
