<svg xmlns="http://www.w3.org/2000/svg" width="40" height="40" viewBox="0 0 40 40" fill="none">
  <path d="M25 20C25 20.9889 24.7068 21.9556 24.1573 22.7779C23.6079 23.6001 22.827 24.241 21.9134 24.6194C20.9998 24.9978 19.9945 25.0969 19.0245 24.9039C18.0546 24.711 17.1637 24.2348 16.4645 23.5355C15.7652 22.8363 15.289 21.9454 15.0961 20.9755C14.9031 20.0055 15.0022 19.0002 15.3806 18.0866C15.759 17.173 16.3999 16.3921 17.2221 15.8427C18.0444 15.2932 19.0111 15 20 15C21.3248 15.0041 22.5942 15.5322 23.531 16.469C24.4678 17.4058 24.9959 18.6752 25 20ZM35.625 13.125V26.875C35.625 29.1956 34.7031 31.4212 33.0622 33.0622C31.4212 34.7031 29.1956 35.625 26.875 35.625H13.125C10.8044 35.625 8.57876 34.7031 6.93782 33.0622C5.29687 31.4212 4.375 29.1956 4.375 26.875V13.125C4.375 10.8044 5.29687 8.57876 6.93782 6.93782C8.57876 5.29687 10.8044 4.375 13.125 4.375H26.875C29.1956 4.375 31.4212 5.29687 33.0622 6.93782C34.7031 8.57876 35.625 10.8044 35.625 13.125ZM27.5 20C27.5 18.5166 27.0601 17.0666 26.236 15.8332C25.4119 14.5999 24.2406 13.6386 22.8701 13.0709C21.4997 12.5032 19.9917 12.3547 18.5368 12.6441C17.082 12.9335 15.7456 13.6478 14.6967 14.6967C13.6478 15.7456 12.9335 17.082 12.6441 18.5368C12.3547 19.9917 12.5032 21.4997 13.0709 22.8701C13.6386 24.2406 14.5999 25.4119 15.8332 26.236C17.0666 27.0601 18.5166 27.5 20 27.5C21.9891 27.5 23.8968 26.7098 25.3033 25.3033C26.7098 23.8968 27.5 21.9891 27.5 20ZM30 11.875C30 11.5042 29.89 11.1416 29.684 10.8333C29.478 10.525 29.1851 10.2846 28.8425 10.1427C28.4999 10.0008 28.1229 9.96368 27.7592 10.036C27.3955 10.1084 27.0614 10.287 26.7992 10.5492C26.537 10.8114 26.3584 11.1455 26.286 11.5092C26.2137 11.8729 26.2508 12.2499 26.3927 12.5925C26.5346 12.9351 26.775 13.228 27.0833 13.434C27.3916 13.64 27.7542 13.75 28.125 13.75C28.6223 13.75 29.0992 13.5525 29.4508 13.2008C29.8025 12.8492 30 12.3723 30 11.875Z" fill="#4A4D5C"/>
</svg>
