<svg xmlns="http://www.w3.org/2000/svg" width="40" height="40" viewBox="0 0 40 40" fill="none">
  <path d="M19.9997 3.42188C10.845 3.42188 3.42383 10.843 3.42383 19.9977C3.42383 29.1524 10.845 36.5736 19.9997 36.5736C29.1544 36.5736 36.5755 29.1524 36.5755 19.9977C36.5755 10.843 29.1544 3.42188 19.9997 3.42188ZM15.942 26.8681H12.5854V16.0661H15.942V26.8681ZM14.243 14.7401C13.1829 14.7401 12.4974 13.989 12.4974 13.06C12.4974 12.1121 13.2036 11.3835 14.2862 11.3835C15.3688 11.3835 16.0318 12.1121 16.0526 13.06C16.0526 13.989 15.3688 14.7401 14.243 14.7401ZM28.2013 26.8681H24.8447V20.8818C24.8447 19.4884 24.3577 18.5422 23.1439 18.5422C22.2167 18.5422 21.6659 19.1827 21.4224 19.7992C21.3326 20.0184 21.3102 20.3292 21.3102 20.6383V26.8663H17.9519V19.5108C17.9519 18.1623 17.9087 17.0348 17.8638 16.0644H20.7801L20.9338 17.5649H21.0011C21.4432 16.8604 22.5258 15.821 24.337 15.821C26.5454 15.821 28.2013 17.3007 28.2013 20.4812V26.8681Z" fill="#4A4D5C"/>
</svg>
