<svg width="40" height="40" viewBox="0 0 40 40" fill="none" xmlns="http://www.w3.org/2000/svg">
<path d="M18.5263 24.1603L16.7942 25.1603L14.7942 21.6962L16.5263 20.6962L18.5263 24.1603ZM23.9904 25.6244C25.9035 24.5198 26.559 22.0734 25.4545 20.1603L23.4545 16.6962C22.3499 14.783 19.9035 14.1275 17.9904 15.2321C16.0772 16.3366 15.4217 18.783 16.5263 20.6962L14.7942 21.6962L14.6467 21.425C13.2473 18.6902 14.1477 15.3297 16.727 13.6611L16.9904 13.5C19.7705 11.8949 23.3012 12.7676 25.0255 15.4328L25.1865 15.6962L27.1865 19.1603C28.8434 22.03 27.8601 25.6996 24.9904 27.3564L24.7192 27.5039C21.9845 28.9034 18.6239 28.0029 16.9553 25.4236L16.7942 25.1603L18.5263 24.1603C19.6308 26.0734 22.0772 26.7289 23.9904 25.6244Z" fill="#3863F6"/>
<path d="M6.75 25.7631C5.23122 23.1325 6.13253 19.7688 8.76314 18.25L13.5263 15.5L16.2763 20.2631C17.7951 22.8937 16.8937 26.2575 14.2631 27.7763C11.6325 29.2951 8.26878 28.3937 6.75 25.7631Z" fill="#3863F6"/>
<path d="M32.7307 10.7631C31.2119 8.13253 27.8482 7.23122 25.2176 8.75L20.4544 11.5L23.2044 16.2631C24.7232 18.8937 28.087 19.7951 30.7176 18.2763C33.3482 16.7575 34.2495 13.3937 32.7307 10.7631Z" fill="#3863F6"/>
<path d="M13.6601 17.7341L12.6601 16.002C11.2793 13.6105 12.0987 10.5526 14.4902 9.17188C16.8816 7.79116 19.9396 8.61054 21.3203 11.002L22.3203 12.7341L13.6601 17.7341Z" fill="#3863F6"/>
<path d="M13.5263 15.5008C12.4217 13.5877 13.0772 11.1413 14.9904 10.0367C16.9035 8.93217 19.3499 9.58767 20.4545 11.5008L20.9545 12.3669L14.0263 16.3669L13.5263 15.5008ZM13.2942 19.0989L23.6865 13.0989L22.1865 10.5008C20.5297 7.63108 16.8601 6.64783 13.9904 8.30469C11.1206 9.96154 10.1374 13.6311 11.7942 16.5008L13.2942 19.0989Z" fill="#3863F6"/>
<path d="M22.9544 15.832C23.4327 15.5559 24.0443 15.7198 24.3204 16.1981C24.5966 16.6763 24.4327 17.2879 23.9544 17.5641L17.0262 21.5641C16.5479 21.8402 15.9363 21.6763 15.6602 21.1981C15.384 20.7198 15.5479 20.1082 16.0262 19.832L22.9544 15.832Z" fill="#3863F6"/>
<path d="M24.9544 19.2949C25.4327 19.0188 26.0443 19.1827 26.3204 19.6609C26.5966 20.1392 26.4327 20.7508 25.9544 21.027L19.0262 25.027C18.5479 25.3031 17.9363 25.1392 17.6602 24.6609C17.384 24.1827 17.5479 23.5711 18.0262 23.2949L24.9544 19.2949Z" fill="#3863F6"/>
<path d="M25.6506 8.50195C26.1289 8.22581 26.7405 8.38969 27.0166 8.86798C27.2928 9.34627 27.1289 9.95786 26.6506 10.234L10.1961 19.734C9.71781 20.0101 9.10622 19.8463 8.83008 19.368C8.55394 18.8897 8.71781 18.2781 9.1961 18.002L25.6506 8.50195Z" fill="#3863F6"/>
<circle cx="26.9904" cy="30.8219" r="2" transform="rotate(-30 26.9904 30.8219)" fill="#3863F6"/>
</svg>
